<svg xmlns="http://www.w3.org/2000/svg" xmlns:xlink="http://www.w3.org/1999/xlink" version="1.0" x="0" y="0" width="2400" height="602.9053791751539" viewBox="71.34575439453126 100.21700836181641 197.3084912109375 49.56597946166992" preserveAspectRatio="xMidYMid meet" color-interpolation-filters="sRGB"><g><defs><linearGradient id="92" x1="0%" y1="0%" x2="100%" y2="0%"><stop offset="0%" stop-color="#fa71cd"></stop> <stop offset="100%" stop-color="#9b59b6"></stop></linearGradient><linearGradient id="93" x1="0%" y1="0%" x2="100%" y2="0%"><stop offset="0%" stop-color="#f9d423"></stop> <stop offset="100%" stop-color="#f83600"></stop></linearGradient><linearGradient id="94" x1="0%" y1="0%" x2="100%" y2="0%"><stop offset="0%" stop-color="#0064d2"></stop> <stop offset="100%" stop-color="#1cb0f6"></stop></linearGradient><linearGradient id="95" x1="0%" y1="0%" x2="100%" y2="0%"><stop offset="0%" stop-color="#f00978"></stop> <stop offset="100%" stop-color="#3f51b1"></stop></linearGradient><linearGradient id="96" x1="0%" y1="0%" x2="100%" y2="0%"><stop offset="0%" stop-color="#7873f5"></stop> <stop offset="100%" stop-color="#ec77ab"></stop></linearGradient><linearGradient id="97" x1="0%" y1="0%" x2="100%" y2="0%"><stop offset="0%" stop-color="#f9d423"></stop> <stop offset="100%" stop-color="#e14fad"></stop></linearGradient><linearGradient id="98" x1="0%" y1="0%" x2="100%" y2="0%"><stop offset="0%" stop-color="#009efd"></stop> <stop offset="100%" stop-color="#2af598"></stop></linearGradient><linearGradient id="99" x1="0%" y1="0%" x2="100%" y2="0%"><stop offset="0%" stop-color="#ffcc00"></stop> <stop offset="100%" stop-color="#00b140"></stop></linearGradient><linearGradient id="100" x1="0%" y1="0%" x2="100%" y2="0%"><stop offset="0%" stop-color="#d51007"></stop> <stop offset="100%" stop-color="#ff8177"></stop></linearGradient><linearGradient id="102" x1="0%" y1="0%" x2="100%" y2="0%"><stop offset="0%" stop-color="#a2b6df"></stop> <stop offset="100%" stop-color="#0c3483"></stop></linearGradient><linearGradient id="103" x1="0%" y1="0%" x2="100%" y2="0%"><stop offset="0%" stop-color="#7ac5d8"></stop> <stop offset="100%" stop-color="#eea2a2"></stop></linearGradient><linearGradient id="104" x1="0%" y1="0%" x2="100%" y2="0%"><stop offset="0%" stop-color="#00ecbc"></stop> <stop offset="100%" stop-color="#007adf"></stop></linearGradient><linearGradient id="105" x1="0%" y1="0%" x2="100%" y2="0%"><stop offset="0%" stop-color="#b88746"></stop> <stop offset="100%" stop-color="#fdf5a6"></stop></linearGradient></defs><g fill="#feffff" class="iconlinesvg-g iconlinesvg" transform="translate(73.28015137408589,102.15140724182129)"><g class="tp-name"><g transform="translate(0, 0)"><g><g class="imagesvg"><g><rect fill="#feffff" fill-opacity="0" stroke-width="2" x="0" y="0" width="48.53772216304425" height="45.69718513504957" class="image-rect"></rect> <svg x="0" y="0" width="48.53772216304425" height="45.69718513504957" filtersec="colorsb660111066" class="image-svg-svg primary" style="overflow: visible;"><svg xmlns="http://www.w3.org/2000/svg" viewBox="0.24393652379512787 0 104.84598541259766 98.70999908447266"><g fill-rule="evenodd"><path d="M102.52 98.71H87.61a4 4 0 0 1-3.41-2l-3.61-6.26a2.57 2.57 0 0 1 2.22-3.86h14.92a3.93 3.93 0 0 1 3.41 2l3.61 6.26a2.58 2.58 0 0 1-2.23 3.86" fill="#4FD1C5"></path><path d="M85.77 62L60.89 18.87l.08-.13L50.15 0 1.27 84.64A9.38 9.38 0 0 0 17.5 94l32.57-56.38L64.12 62H49.23a9.37 9.37 0 0 0-9.36 9.37 9.37 9.37 0 0 0 9.36 9.36h47.35z" fill="#feffff"></path></g></svg></svg> </g></g></g></g><g transform="translate(43, 3.6441532611664016)"><g fill="#feffff" transform="scale(1)"><path d="M21.20 0L13.90 0Q11.35 0 9.83-1.52Q8.31-3.04 8.31-5.65L8.31-5.65L8.31-21.26L1.44-21.26L1.44-26.32L8.31-26.32L8.31-34.79L14.44-34.79L14.44-26.32L22.00-26.32L22.00-21.26L14.44-21.26L14.44-6.66Q14.44-5.06 15.93-5.06L15.93-5.06L21.20-5.06L21.20 0Z" transform="translate(-1.438335260115607, 37.663075144508674)"></path></g></g><g transform="translate(67, 3.6441532611664016)"><g fill="#feffff" transform="scale(1)"><path d="M10.02 0L3.89 0L3.89-37.29L10.02-37.29L10.02-22.85L10.92-22.85Q11.35-23.76 12.31-24.66Q13.26-25.57 14.84-26.16Q16.41-26.74 18.80-26.74L18.80-26.74Q21.84-26.74 24.19-25.38Q26.53-24.03 27.83-21.58Q29.14-19.12 29.14-15.77L29.14-15.77L29.14 0L23.01 0L23.01-15.29Q23.01-18.49 21.44-20.06Q19.87-21.63 16.99-21.63L16.99-21.63Q13.74-21.63 11.88-19.47Q10.02-17.31 10.02-13.32L10.02-13.32L10.02 0Z" transform="translate(-3.8888323699421967, 37.663075144508674)"></path></g></g><g transform="translate(96, 3.6441532611664016)"><g fill="#feffff" transform="scale(1)"><path d="M15.93 0.75L15.93 0.75Q11.99 0.75 8.98-0.93Q5.97-2.61 4.29-5.67Q2.61-8.74 2.61-12.84L2.61-12.84L2.61-13.48Q2.61-17.63 4.26-20.67Q5.91-23.71 8.90-25.38Q11.88-27.06 15.77-27.06L15.77-27.06Q19.60-27.06 22.48-25.38Q25.36-23.71 26.96-20.67Q28.55-17.63 28.55-13.58L28.55-13.58L28.55-11.40L8.79-11.40Q8.90-8.31 10.97-6.45Q13.05-4.58 16.09-4.58L16.09-4.58Q19.07-4.58 20.51-5.89Q21.95-7.19 22.69-8.84L22.69-8.84L27.75-6.23Q27.01-4.79 25.60-3.17Q24.19-1.54 21.84-0.40Q19.50 0.75 15.93 0.75ZM8.84-16.03L8.84-16.03L22.32-16.03Q22.11-18.65 20.32-20.19Q18.54-21.73 15.72-21.73L15.72-21.73Q12.79-21.73 11.03-20.19Q9.27-18.65 8.84-16.03Z" transform="translate(-2.610312138728324, 37.663075144508674)"></path></g></g><g transform="translate(125, 3.6441532611664016)"><g fill="#feffff" transform="scale(1)"><path d="M10.02 0L3.89 0L3.89-26.32L9.91-26.32L9.91-22.64L10.81-22.64Q11.51-24.13 13.32-25.46Q15.13-26.80 18.80-26.80L18.80-26.80Q21.84-26.80 24.19-25.41Q26.53-24.03 27.83-21.58Q29.14-19.12 29.14-15.77L29.14-15.77L29.14 0L23.01 0L23.01-15.29Q23.01-18.49 21.44-20.06Q19.87-21.63 16.99-21.63L16.99-21.63Q13.74-21.63 11.88-19.47Q10.02-17.31 10.02-13.32L10.02-13.32L10.02 0Z" transform="translate(-3.8888323699421967, 37.663075144508674)"></path></g></g><g transform="translate(154, 3.6441532611664016)"><g fill="#feffff" transform="scale(1)"><path d="M10.02 0L3.89 0L3.89-26.32L10.02-26.32L10.02 0ZM6.93-29.67L6.93-29.67Q5.27-29.67 4.08-30.76Q2.88-31.86 2.88-33.67L2.88-33.67Q2.88-35.48 4.08-36.57Q5.27-37.66 6.93-37.66L6.93-37.66Q8.68-37.66 9.83-36.57Q10.97-35.48 10.97-33.67L10.97-33.67Q10.97-31.86 9.83-30.76Q8.68-29.67 6.93-29.67Z" transform="translate(-2.876670520231214, 37.663075144508674)"></path></g></g><g transform="translate(166, 3.6441532611664016)"><g fill="#feffff" transform="scale(1)"><path d="M16.35 0.75L16.35 0.75Q12.41 0.75 9.30-0.88Q6.18-2.50 4.39-5.51Q2.61-8.52 2.61-12.73L2.61-12.73L2.61-13.58Q2.61-17.79 4.39-20.83Q6.18-23.87 9.30-25.46Q12.41-27.06 16.35-27.06L16.35-27.06Q20.30-27.06 23.39-25.46Q26.48-23.87 28.26-20.83Q30.05-17.79 30.05-13.58L30.05-13.58L30.05-12.73Q30.05-8.52 28.26-5.51Q26.48-2.50 23.39-0.88Q20.30 0.75 16.35 0.75ZM16.35-4.69L16.35-4.69Q19.71-4.69 21.84-6.85Q23.97-9.00 23.97-12.89L23.97-12.89L23.97-13.42Q23.97-17.31 21.84-19.47Q19.71-21.63 16.35-21.63L16.35-21.63Q13.00-21.63 10.87-19.47Q8.74-17.31 8.74-13.42L8.74-13.42L8.74-12.89Q8.74-9.00 10.87-6.85Q13.00-4.69 16.35-4.69Z" transform="translate(-2.610312138728324, 37.663075144508674)"></path></g></g></g> </g><defs v-gra="od"></defs></g></svg>