<svg xmlns="http://www.w3.org/2000/svg" viewBox="153.51 392.39 208.55 208.55">
  <path fill="#4FD1C5" d="M292.133 484.967C294.056 486.872 306.558 506.414 308.96 510.268C319.542 527.244 331.628 544.409 341.875 561.442L270.25 561.442C261.908 561.46 253.566 561.43 245.224 561.353C248.897 554.839 253.022 548.16 256.874 541.718C261.319 541.453 268.365 541.804 273.054 541.831L307.645 542.025C299.239 529.434 291.004 516.729 282.942 503.914C285.372 498.222 289.343 490.684 292.133 484.967Z"/>
  <path fill="#D4820A" d="M173.69 561.313C185.86 541.879 199.173 522.415 211.69 503.15C216.886 495.152 222.154 486.583 227.476 478.808C232.832 481.057 235.823 482.313 240.313 486.156C241.596 487.254 243.635 489.326 244.86 490.232C229.252 513.831 213.507 537.776 197.579 561.128C189.615 561.081 181.652 561.142 173.69 561.313Z"/>
  <path fill="#D4820A" d="M259.628 482.447C264.031 484.362 269.895 483.459 273.73 486.525C275.447 487.898 276.924 490.497 278.676 491.992C274.003 499.828 265.896 511.085 260.629 518.883C251.081 533.057 241.654 547.311 232.349 561.645C224.436 561.544 216.522 561.49 208.608 561.482C210.745 557.392 214.883 551.377 217.504 547.378L232.527 524.479C241.147 511.336 250.942 494.908 259.628 482.447Z"/>
  <path fill="#F0B84A" d="M258.227 431.68C262.262 438.182 266.491 445.275 270.87 451.486L244.86 490.232C243.635 489.326 241.596 487.254 240.313 486.156C235.823 482.313 232.832 481.057 227.476 478.808C237.304 463.283 247.741 446.689 258.227 431.68Z"/>
  <path fill="#F0B84A" d="M259.628 482.447C264.771 474.152 270.049 465.941 275.46 457.819C279.287 463.943 284.053 471.943 288.257 477.74C285.024 482.464 281.83 487.215 278.676 491.992C276.924 490.497 275.447 487.898 273.73 486.525C269.895 483.459 264.031 484.362 259.628 482.447Z"/>
</svg>